<svg xmlns="http://www.w3.org/2000/svg" xmlns:xlink="http://www.w3.org/1999/xlink" width="2000" zoomAndPan="magnify" viewBox="0 0 1500 1499.999933" height="2000" preserveAspectRatio="xMidYMid meet" version="1.0"><defs><clipPath id="373cf541c1"><path d="M 838 679 L 1017 679 L 1017 954.230469 L 838 954.230469 Z M 838 679 " clip-rule="nonzero"/></clipPath><clipPath id="225344c8c3"><path d="M 486 461 L 933 461 L 933 954.230469 L 486 954.230469 Z M 486 461 " clip-rule="nonzero"/></clipPath></defs><rect x="-150" width="1800" fill="#ffffff" y="-149.999993" height="1799.99992" fill-opacity="1"/><rect x="-150" width="1800" fill="#0a0a0a" y="-149.999993" height="1799.99992" fill-opacity="1"/><g clip-path="url(#373cf541c1)"><path fill="#e7e3dd" d="M 1010.003906 885.898438 L 890.882812 679.617188 L 838.363281 770.691406 L 931.109375 931.378906 C 939.492188 945.90625 954.800781 954.175781 970.558594 954.175781 C 978.265625 954.175781 986.089844 952.164062 993.242188 948.03125 C 1015.144531 935.402344 1022.519531 907.691406 1010.003906 885.898438 Z M 1010.003906 885.898438 " fill-opacity="1" fill-rule="nonzero"/></g><g clip-path="url(#225344c8c3)"><path fill="#e7e3dd" d="M 926.417969 566.308594 L 875.910156 653.804688 L 823.277344 744.878906 L 741.925781 885.789062 C 717.566406 928.027344 672.085938 954.289062 623.363281 954.289062 C 573.859375 954.289062 529.496094 928.699219 504.691406 885.789062 C 479.882812 842.988281 479.882812 791.699219 504.691406 748.789062 L 647.054688 502.390625 C 661.804688 476.800781 688.289062 461.492188 717.789062 461.492188 C 747.289062 461.492188 773.773438 476.800781 788.636719 502.390625 L 793.777344 511.328125 L 808.527344 536.808594 L 755.894531 627.878906 L 717.789062 561.949219 L 583.695312 794.269531 C 571.738281 814.941406 579.671875 833.269531 583.695312 840.195312 C 587.714844 847.125 599.5625 863.214844 623.476562 863.214844 C 639.789062 863.214844 655.097656 854.386719 663.144531 840.195312 L 770.753906 653.804688 L 823.386719 562.730469 L 847.523438 520.828125 C 860.152344 499.035156 887.976562 491.550781 909.765625 504.175781 C 931.558594 516.691406 939.042969 544.515625 926.417969 566.308594 Z M 926.417969 566.308594 " fill-opacity="1" fill-rule="nonzero"/></g><path fill="#e7e3dd" d="M 904.292969 458.136719 C 928.652344 513.003906 1009.890625 479.371094 988.4375 423.273438 C 963.964844 368.519531 882.726562 402.152344 904.292969 458.136719 Z M 904.292969 458.136719 " fill-opacity="1" fill-rule="nonzero"/></svg>